<svg width="35" height="35" viewBox="0 0 35 35" fill="none" xmlns="http://www.w3.org/2000/svg">
<g clip-path="url(#clip0_20_70)">
<path d="M32 0H3C1.34315 0 0 1.34315 0 3V32C0 33.6569 1.34315 35 3 35H32C33.6569 35 35 33.6569 35 32V3C35 1.34315 33.6569 0 32 0Z" fill="#F59E59"/>
<path d="M10 17.2309L9.30485 16.5119L8.56149 17.2309L9.30485 17.9496L10 17.2309ZM24 18.2309C24.5523 18.2309 25 17.7832 25 17.2309C25 16.6786 24.5523 16.2309 24 16.2309V17.2309V18.2309ZM14.375 13L13.6798 12.2812L9.30485 16.5119L10 17.2309L10.6952 17.9496L15.0702 13.7189L14.375 13ZM10 17.2309L9.30485 17.9496L13.6798 22.1805L14.375 21.4615L15.0702 20.7428L10.6952 16.5119L10 17.2309ZM10 17.2309V18.2309H24V17.2309V16.2309H10V17.2309Z" fill="#FFFBFA"/>
</g>
<defs>
<clipPath id="clip0_20_70">
<rect width="35" height="35" fill="white"/>
</clipPath>
</defs>
</svg>
