<svg width="35" height="35" viewBox="0 0 35 35" fill="none" xmlns="http://www.w3.org/2000/svg">
<g clip-path="url(#clip0_20_73)">
<path d="M32 0H3C1.34315 0 0 1.34315 0 3V32C0 33.6569 1.34315 35 3 35H32C33.6569 35 35 33.6569 35 32V3C35 1.34315 33.6569 0 32 0Z" fill="#F59E59"/>
<path d="M24 17.2309L24.6952 16.5119L25.4385 17.2309L24.6952 17.9496L24 17.2309ZM10 18.2309C9.44771 18.2309 9 17.7832 9 17.2309C9 16.6786 9.44771 16.2309 10 16.2309V17.2309V18.2309ZM19.625 13L20.3202 12.2812L24.6952 16.5119L24 17.2309L23.3048 17.9496L18.9298 13.7189L19.625 13ZM24 17.2309L24.6952 17.9496L20.3202 22.1805L19.625 21.4615L18.9298 20.7428L23.3048 16.5119L24 17.2309ZM24 17.2309V18.2309H10V17.2309V16.2309H24V17.2309Z" fill="#FFFBFA"/>
</g>
<defs>
<clipPath id="clip0_20_73">
<rect width="35" height="35" fill="white"/>
</clipPath>
</defs>
</svg>
