<svg width="112" height="112" viewBox="0 0 112 112" fill="none" xmlns="http://www.w3.org/2000/svg">
<path d="M65.4687 2.48137L58.5643 9.38603C60.6376 11.4594 60.6376 14.8225 58.5643 16.8959C56.491 18.9692 53.1281 18.9692 51.0549 16.8959L2.49614 65.4567C2.49118 65.4617 2.48622 65.4666 2.48126 65.4716C-0.827085 68.7801 -0.827085 74.152 2.48126 77.4605L2.5011 77.4804L34.5231 109.504L34.5379 109.519C37.8463 112.827 43.218 112.827 46.5263 109.519C46.5313 109.514 46.5363 109.509 46.5462 109.499L95.1049 60.9379C93.359 58.8199 93.4631 55.7197 95.4025 53.7406C97.3716 51.7714 100.496 51.6672 102.585 53.4331L102.599 53.4479L109.504 46.5433C109.509 46.5383 109.514 46.5334 109.519 46.5284C112.827 43.2199 112.827 37.848 109.519 34.5395C109.514 34.5345 109.509 34.5295 109.499 34.5196L77.4769 2.49625C77.472 2.49129 77.467 2.48633 77.4621 2.48137C74.1537 -0.827122 68.782 -0.827122 65.4737 2.48137C65.4687 2.48633 65.4687 2.48633 65.4637 2.49129L65.4687 2.48137ZM29.935 60.8685L39.4583 51.3448C39.4682 51.3299 39.4831 51.315 39.498 51.3002C39.8253 50.9728 40.361 50.9728 40.6884 51.3002C41.0157 51.6275 41.0157 52.1632 40.6884 52.4906C40.6735 52.5055 40.6586 52.5204 40.6437 52.5303L31.1205 62.054C31.1106 62.0639 31.1006 62.0788 31.0858 62.0887C30.7733 62.4012 30.2723 62.4012 29.9598 62.0887C29.9499 62.0788 29.935 62.0639 29.9251 62.049C29.5978 61.7216 29.5978 61.1859 29.9301 60.8586L29.935 60.8685ZM43.3271 53.6662C43.337 53.6513 43.3519 53.6364 43.3668 53.6216C43.6942 53.2942 44.2298 53.2942 44.5572 53.6216C44.8846 53.9489 44.8846 54.4846 44.5572 54.812C44.5423 54.8269 44.5274 54.8418 44.5126 54.8517L39.4484 59.9161C39.4385 59.931 39.4236 59.9459 39.4087 59.9608C39.0813 60.2881 38.5456 60.2881 38.2183 59.9608C37.8909 59.6334 37.8909 59.0977 38.2183 58.7703C38.2332 58.7554 38.2481 58.7405 38.2629 58.7306L43.3271 53.6662ZM34.8008 92.9068C35.2919 93.3978 35.2919 94.2014 34.8008 94.6924C34.3098 95.1835 33.5063 95.1835 33.0152 94.6924L17.3018 78.9784C16.8108 78.4873 16.8108 77.6837 17.3018 77.1927C17.7929 76.7016 18.5964 76.7016 19.0874 77.1927L34.8008 92.9068ZM35.0984 86.4187C35.5895 86.9098 35.5895 87.7134 35.0984 88.2044C34.6074 88.6955 33.8039 88.6955 33.3128 88.2044L23.7896 78.6807C23.2985 78.1897 23.2985 77.3861 23.7896 76.8951C24.2806 76.404 25.0841 76.404 25.5752 76.8951L35.0984 86.4187ZM60.2061 72.1431L50.7076 81.642C50.6977 81.6569 50.6828 81.6718 50.668 81.6867C50.3406 82.014 49.8049 82.014 49.4776 81.6867C49.1502 81.3593 49.1502 80.8236 49.4776 80.4962C49.4924 80.4813 49.5073 80.4664 49.5222 80.4565L59.0455 70.9328C59.0554 70.9229 59.0653 70.908 59.0802 70.8981C59.3927 70.5856 59.8936 70.5856 60.2061 70.8981C60.216 70.908 60.2309 70.9229 60.2408 70.9378C60.5335 71.2801 60.5335 71.786 60.2408 72.1233L60.2061 72.1431ZM52.6123 73.1898C52.28 73.4774 51.779 73.4675 51.4616 73.1501C51.1441 72.8326 51.1342 72.3316 51.4219 71.9993L56.4861 66.9349C56.8184 66.6472 57.3194 66.6571 57.6368 66.9745C57.9543 67.292 57.9642 67.793 57.6765 68.1253L52.6123 73.1898ZM67.909 48.8498L62.4927 54.2664L65.5877 67.5995C65.6522 68.0212 65.5332 68.4577 65.2306 68.785L63.0879 70.9279C63.0829 70.9378 63.073 70.9428 63.0631 70.9527C62.7804 71.2354 62.3885 71.3495 62.0215 71.285H62.0165C61.7784 71.2652 61.5404 71.161 61.3568 70.9775C61.2527 70.8733 61.1733 70.7493 61.1237 70.6203L61.1287 70.6253L56.0198 60.8734L51.7344 65.1591L52.151 68.3138C52.2155 68.6858 52.1014 69.0777 51.8187 69.3604C51.8088 69.3704 51.7989 69.3753 51.7939 69.3852L50.1868 70.9924C50.1819 71.0023 50.172 71.0072 50.162 71.0172C49.8793 71.2999 49.4875 71.414 49.1204 71.3495H49.1155C48.8774 71.3297 48.6393 71.2255 48.4558 71.042C48.3516 70.9378 48.2723 70.8138 48.2227 70.6848L48.2276 70.6898L45.7278 66.166L41.1943 63.6561C41.11 63.6016 41.0257 63.5321 40.9413 63.4528C40.7429 63.2544 40.6041 63.0113 40.5346 62.7583L40.5396 62.7683C40.4751 62.3962 40.5892 62.0044 40.8719 61.7216C40.8818 61.7117 40.8917 61.7068 40.8967 61.6968L42.5038 60.0897C42.5087 60.0798 42.5186 60.0748 42.5286 60.0649C42.8113 59.7822 43.2031 59.6681 43.5702 59.7326H43.5751L46.7297 60.1492L51.0152 55.8636L41.1348 50.6256C41.0306 50.571 40.9215 50.4966 40.8273 50.4024C40.3511 49.9262 40.3511 49.1573 40.8273 48.6811C40.8372 48.6712 40.8471 48.6663 40.8521 48.6563L42.9898 46.5185C43.3222 46.2159 43.7586 46.0969 44.1753 46.1613H44.1802L57.5128 49.2565L62.9292 43.8399C64.313 42.4709 66.545 42.4709 67.9289 43.8399C69.2631 45.2437 69.2582 47.456 67.909 48.8498ZM90.7649 46.5879C91.2559 47.079 91.2559 47.8825 90.7649 48.3736C90.2738 48.8647 89.4703 48.8647 88.9793 48.3736L88.384 47.7784C87.893 47.2873 87.893 46.4838 88.384 45.9927C88.8751 45.5016 89.6786 45.5016 90.1697 45.9927L90.7649 46.5879ZM86.5984 42.4213C87.0895 42.9124 87.0895 43.7159 86.5984 44.207C86.1074 44.6981 85.3039 44.6981 84.8128 44.207L84.2176 43.6118C83.7266 43.1207 83.7266 42.3171 84.2176 41.8261C84.7087 41.335 85.5122 41.335 86.0032 41.8261L86.5984 42.4213ZM82.432 38.2547C82.923 38.7458 82.923 39.5493 82.432 40.0404C81.941 40.5315 81.1374 40.5315 80.6464 40.0404L80.0462 39.4402C79.5552 38.9491 79.5552 38.1456 80.0462 37.6545C80.5373 37.1634 81.3408 37.1634 81.8319 37.6545L82.432 38.2547ZM78.2705 34.0881C78.7616 34.5792 78.7616 35.3827 78.2705 35.8738C77.7795 36.3648 76.976 36.3648 76.4849 35.8738L75.8848 35.2736C75.3937 34.7825 75.3937 33.979 75.8848 33.4879C76.3758 32.9968 77.1793 32.9968 77.6704 33.4879L78.2705 34.0881ZM74.1041 29.9215C74.5952 30.4125 74.5952 31.2161 74.1041 31.7072C73.6131 32.1982 72.8095 32.1982 72.3185 31.7072L71.7183 31.107C71.2273 30.6159 71.2273 29.8124 71.7183 29.3213C72.2094 28.8302 73.0129 28.8302 73.504 29.3213L74.1041 29.9215ZM69.9377 25.7549C70.4287 26.2459 70.4287 27.0495 69.9377 27.5406C69.4466 28.0316 68.6431 28.0316 68.1521 27.5406L67.5519 26.9404C67.0609 26.4493 67.0609 25.6457 67.5519 25.1547C68.043 24.6636 68.8465 24.6636 69.3375 25.1547L69.9377 25.7549ZM65.7713 21.5883C66.2623 22.0793 66.2623 22.8829 65.7713 23.3739C65.2802 23.865 64.4767 23.865 63.9857 23.3739L63.3855 22.7738C62.8944 22.2827 62.8944 21.4791 63.3855 20.9881C63.8765 20.497 64.6801 20.497 65.1711 20.9881L65.7713 21.5883ZM69.9377 16.7123L73.9851 12.6648L72.5516 11.2312L73.504 10.2789L77.4918 14.2669L76.5395 15.2193L75.111 13.7907L71.0636 17.8383L69.9377 16.7123ZM73.9256 20.7004L78.9253 15.7004L80.0512 16.8264L75.0515 21.8263L73.9256 20.7004ZM101.707 38.4829L100.754 39.4352L99.3259 38.0067L95.2835 42.0493L94.1575 40.9233L98.2049 36.8758L96.7764 35.4472L97.7288 34.4948L101.707 38.4829ZM96.4689 33.2498L95.5761 34.1427L93.3838 31.9502L92.3124 33.0216L94.2815 34.9909L93.3887 35.8837L91.4196 33.9145L90.2292 35.1049L92.481 37.3569L91.5882 38.2497L88.2104 34.8718L93.2102 29.8719L96.5433 33.2052L96.4689 33.2498ZM88.7313 25.5069L86.4794 27.7588L90.3333 27.114L91.5833 28.364L87.9525 28.8997L86.8216 33.602L85.5767 32.357L86.41 29.1427L84.912 29.3312L83.6621 30.5812L82.5362 29.4552L87.5359 24.4553L88.6618 25.5813L88.7313 25.5069ZM85.1005 24.0188L83.672 23.5426C83.8456 22.9275 83.6869 22.248 83.2107 21.7718C83.2058 21.7668 83.2058 21.7668 83.2008 21.7619C82.4866 21.0476 81.3557 20.9831 80.2843 22.0595C79.213 23.1359 79.2725 24.2618 79.9867 24.9761C79.9917 24.9811 79.9917 24.9811 79.9966 24.986C80.4728 25.4622 81.1523 25.616 81.7574 25.4473L81.7674 25.4424L82.2435 26.8709C81.1375 27.1239 79.9421 26.8263 79.089 25.9731C79.0493 25.9334 79.0046 25.8888 78.965 25.8441L78.9699 25.8491C78.9501 25.8293 78.9203 25.8045 78.8955 25.7797C77.5811 24.4652 77.5811 22.3373 78.8955 21.0277C78.96 20.9633 79.0294 20.9037 79.0939 20.8442L79.084 20.8541C79.1435 20.7847 79.213 20.7053 79.2923 20.626C80.5869 19.3313 82.6899 19.3313 83.9845 20.626C84.0242 20.6656 84.0589 20.7004 84.0936 20.7401L84.0887 20.7351C84.168 20.7996 84.2523 20.874 84.3367 20.9583C85.16 21.7817 85.418 22.9622 85.1055 24.0089L85.1005 24.0237V24.0188Z" fill="#032226"/>
</svg>
