<svg width="54" height="37" viewBox="0 0 54 37" fill="none" xmlns="http://www.w3.org/2000/svg">
<path d="M27 34.5C20.7336 34.5 16.7951 31.1367 14.1663 27.972C13.068 26.6497 10.9654 26.6675 10.0042 28.0807C8.25195 30.6572 6.21005 33.0317 2 33.9647M52 33.9647C48.0307 33.0852 45.9888 30.9242 44.2998 28.5207C43.2413 27.0147 40.9137 27.1062 39.7637 28.552C38.7382 29.8412 37.5158 31.0297 36.037 32" stroke="#032226" stroke-width="3.75" stroke-linecap="round" stroke-linejoin="round"/>
<path d="M27 9.5C33.2663 9.5 37.2047 6.13678 39.8337 2.97193C40.932 1.64978 43.0345 1.66743 43.9957 3.08083C45.748 5.65721 47.79 8.03186 52 8.96486M2 8.96486C5.96917 8.08526 8.0112 5.92423 9.70023 3.52085C10.7586 2.01478 13.0864 2.1063 14.2362 3.5519C15.2617 4.84115 16.4843 6.02975 17.963 7" stroke="#032226" stroke-width="3.75" stroke-linecap="round" stroke-linejoin="round"/>
<path d="M52 21.4647C48.0307 20.5852 45.9888 18.4242 44.2998 16.0207C43.2413 14.5147 40.9137 14.6062 39.7637 16.052C37.1352 19.3567 33.211 22 27 22C20.7336 22 16.7951 18.6367 14.1663 15.472C13.068 14.1497 10.9654 14.1675 10.0042 15.5807C8.25195 18.1572 6.21005 20.5317 2 21.4647" stroke="#032226" stroke-width="3.75" stroke-linecap="round" stroke-linejoin="round"/>
</svg>
