<svg width="35" height="53" viewBox="0 0 35 53" fill="none" xmlns="http://www.w3.org/2000/svg">
<path d="M18.9642 14.4022H20.6882C21.5727 14.4022 22.3019 15.0677 22.4002 15.9245L22.4123 16.1262V19.5743H24.1363V16.1262C24.1363 15.3108 24.7035 14.6263 25.4655 14.447L25.6586 14.4143L25.8603 14.4022H32.7564C33.6408 14.4022 34.3701 15.0677 34.4683 15.9245L34.4804 16.1262V24.7463C34.4804 25.0187 34.4166 25.286 34.2942 25.5273L34.1908 25.7032L31.0323 30.439V50.6066C31.0323 51.4221 30.4651 52.1065 29.7031 52.2858L29.51 52.3186L29.3083 52.3306H5.17206C4.28764 52.3306 3.55838 51.6652 3.46011 50.8083L3.44804 50.6066V30.4425L0.289636 25.7032C0.17585 25.5325 0.0948209 25.3446 0.0482723 25.148L0.0120681 24.9498L0 24.7463V16.1262C0 15.2418 0.665472 14.5126 1.52231 14.4143L1.72402 14.4022H8.6201C9.50452 14.4022 10.2338 15.0677 10.332 15.9245L10.3441 16.1262V19.5743H12.0681V16.1262C12.0681 15.3108 12.6353 14.6263 13.3974 14.447L13.5904 14.4143L13.7922 14.4022H15.5162H18.9642ZM6.89608 17.8503H3.44804V24.224L6.60644 28.9616C6.72023 29.1322 6.80126 29.3202 6.84781 29.5167L6.88401 29.715L6.89608 29.9184V48.8826H10.3441V41.9865C10.3441 38.2937 13.2474 35.2784 16.8954 35.0991L17.2402 35.0905C20.933 35.0905 23.9484 37.9937 24.1277 41.6417L24.1363 41.9865V48.8826H27.5843V35.0905H24.1363V31.6424H27.5843V29.9184C27.5843 29.715 27.6205 29.5133 27.6912 29.3236L27.7705 29.1374L27.8739 28.9616L31.0323 24.2222V17.8503H27.5843V21.2983C27.5843 22.1138 27.0171 22.7982 26.2551 22.9775L26.062 23.0103L25.8603 23.0223H20.6882C19.8038 23.0223 19.0746 22.3568 18.9763 21.5L18.9642 21.2983V17.8503H15.5162V21.2983C15.5162 22.1138 14.949 22.7982 14.187 22.9775L13.9939 23.0103L13.7922 23.0223H8.6201C7.73568 23.0223 7.00641 22.3568 6.90815 21.5L6.89608 21.2983V17.8503ZM17.2402 38.5385C15.4231 38.5385 13.9335 39.9453 13.8008 41.7297L13.7922 41.9865V48.8826H20.6882V41.9865C20.6882 40.2591 19.4194 38.8299 17.7626 38.5781L17.4971 38.5471L17.2402 38.5385ZM24.1363 29.9184H18.9642V26.4704H24.1363V29.9184Z" fill="#032226"/>
<path d="M17.6714 15.6952V2.44098" stroke="#032226" stroke-width="3.67" stroke-linecap="round" stroke-linejoin="round"/>
<path d="M26.5241 9.23708H17.8867V2.33066H26.5241V9.23708Z" stroke="#032226" stroke-width="3.67" stroke-linecap="round" stroke-linejoin="round"/>
</svg>
