<svg width="44" height="50" viewBox="0 0 44 50" fill="none" xmlns="http://www.w3.org/2000/svg">
<path d="M21.8438 15.3589C22.2449 14.9577 22.2439 14.3049 21.8412 13.9022C21.4411 13.5021 20.7875 13.5002 20.3861 13.9015C19.9826 14.3052 19.9855 14.9577 20.3856 15.3579C20.7884 15.7606 21.4403 15.7626 21.8438 15.3589Z" fill="#032226"/>
<path d="M15.8652 16.9637C16.2671 17.3655 16.9202 17.368 17.3229 16.9653C17.7246 16.5636 17.7226 15.9098 17.3208 15.508C16.9198 15.107 16.2666 15.1056 15.865 15.5073C15.4623 15.91 15.4643 16.5627 15.8652 16.9637Z" fill="#032226"/>
<path d="M21.6916 19.8772C22.3713 19.1977 22.3709 18.0947 21.6914 17.4154C21.0102 16.7342 19.9082 16.7347 19.2286 17.4142C18.5475 18.0953 18.5455 19.1988 19.2266 19.8799C19.9061 20.5593 21.0105 20.5583 21.6916 19.8772Z" fill="#032226"/>
<path d="M41.7214 2.22338C38.7568 -0.741127 33.9502 -0.741127 30.9858 2.22338L31.4427 2.68023L32.8281 4.06563L35.6304 6.86825L32.7962 10.1385H8.10972L2.8876 4.11287H0L19.365 26.4474V46.9106C16.1022 47.1284 13.3342 48.3192 11.904 50H20.4505H20.4527H28.9997C27.5689 48.3192 24.7958 47.1284 21.5382 46.9115V26.4474L37.1726 8.41049L40.7717 12.0096V12.0094L41.7214 12.959C44.6859 9.99435 44.6859 5.18789 41.7214 2.22338ZM20.4507 23.0616L11.4971 12.7309H29.4041L20.4507 23.0616ZM33.8276 1.9938C33.7441 1.74507 33.907 1.47876 34.1425 1.47876H37.4088C37.6442 1.47876 37.8071 1.74507 37.7235 1.9938L36.5682 5.44137L34.1842 3.05744L33.8276 1.9938ZM41.9582 10.1102L40.8731 9.74648L38.4998 7.37335L41.9582 6.21422C42.2071 6.13097 42.4731 6.29358 42.4731 6.52921V9.79545C42.4731 10.0309 42.207 10.1937 41.9582 10.1102Z" fill="#032226"/>
</svg>
